<?xml version="1.0" standalone="no"?>
<!DOCTYPE svg PUBLIC "-//W3C//DTD SVG 20010904//EN"
 "http://www.w3.org/TR/2001/REC-SVG-20010904/DTD/svg10.dtd">
<svg version="1.0" xmlns="http://www.w3.org/2000/svg"
 width="2048.000000pt" height="2048.000000pt" viewBox="0 0 2048.000000 2048.000000"
 preserveAspectRatio="xMidYMid meet">
<metadata>
Created by potrace 1.14, written by Peter Selinger 2001-2017
</metadata>
<g transform="translate(0.000000,2048.000000) scale(0.100000,-0.100000)"
fill="#000000" stroke="none">
<path d="M1739 20476 c-2 -2 -35 -6 -72 -10 -38 -3 -119 -17 -180 -30 -649
-139 -1177 -612 -1391 -1246 -13 -41 -30 -97 -36 -125 -7 -27 -14 -59 -17 -70
-2 -11 -13 -72 -23 -135 -18 -111 -18 -429 -17 -8660 1 -4700 5 -8556 9 -8570
4 -13 10 -42 13 -65 17 -121 66 -288 126 -432 237 -561 757 -988 1354 -1109
11 -2 31 -7 45 -11 39 -12 17284 -15 17355 -4 315 52 574 162 835 355 98 72
283 250 336 321 16 22 32 42 35 45 15 12 111 163 151 236 91 164 168 374 193
524 3 19 10 51 15 70 6 22 10 3232 10 8662 0 8458 0 8629 -19 8725 -11 54 -24
110 -30 126 -6 15 -9 27 -6 27 11 0 -73 218 -125 325 -235 478 -655 832 -1164
980 -49 14 -139 35 -200 48 l-111 22 -8541 3 c-4697 1 -8543 0 -8545 -2z"/>
</g>
</svg>
